<svg class="animated" id="freepik_stories-making-art" xmlns="http://www.w3.org/2000/svg" viewBox="0 0 500 500" version="1.1" xmlns:xlink="http://www.w3.org/1999/xlink" xmlns:svgjs="http://svgjs.com/svgjs"><style>svg#freepik_stories-making-art:not(.animated) .animable {opacity: 0;}svg#freepik_stories-making-art.animated #freepik--background-complete--inject-3 {animation: 1s 1 forwards cubic-bezier(.36,-0.01,.5,1.38) slideDown;animation-delay: 0s;}svg#freepik_stories-making-art.animated #freepik--Shadow--inject-3 {animation: 1s 1 forwards cubic-bezier(.36,-0.01,.5,1.38) zoomOut;animation-delay: 0s;}svg#freepik_stories-making-art.animated #freepik--Canvas--inject-3 {animation: 1s 1 forwards cubic-bezier(.36,-0.01,.5,1.38) slideUp;animation-delay: 0s;}svg#freepik_stories-making-art.animated #freepik--Statue--inject-3 {animation: 1s 1 forwards cubic-bezier(.36,-0.01,.5,1.38) slideRight;animation-delay: 0s;}svg#freepik_stories-making-art.animated #freepik--Character--inject-3 {animation: 1s 1 forwards cubic-bezier(.36,-0.01,.5,1.38) zoomIn,1.5s Infinite  linear floating;animation-delay: 0s,1s;}            @keyframes slideDown {                0% {                    opacity: 0;                    transform: translateY(-30px);                }                100% {                    opacity: 1;                    transform: translateY(0);                }            }                    @keyframes zoomOut {                0% {                    opacity: 0;                    transform: scale(1.5);                }                100% {                    opacity: 1;                    transform: scale(1);                }            }                    @keyframes slideUp {                0% {                    opacity: 0;                    transform: translateY(30px);                }                100% {                    opacity: 1;                    transform: inherit;                }            }                    @keyframes slideRight {                0% {                    opacity: 0;                    transform: translateX(30px);                }                100% {                    opacity: 1;                    transform: translateX(0);                }            }                    @keyframes zoomIn {                0% {                    opacity: 0;                    transform: scale(0.5);                }                100% {                    opacity: 1;                    transform: scale(1);                }            }                    @keyframes floating {                0% {                    opacity: 1;                    transform: translateY(0px);                }                50% {                    transform: translateY(-10px);                }                100% {                    opacity: 1;                    transform: translateY(0px);                }            }        </style><g id="freepik--background-complete--inject-3" class="animable" style="transform-origin: 250px 228.23px;"><rect y="382.4" width="500" height="0.25" style="fill: rgb(235, 235, 235); transform-origin: 250px 382.525px;" id="ele8grjp531l7" class="animable"></rect><rect x="416.78" y="398.49" width="33.12" height="0.25" style="fill: rgb(235, 235, 235); transform-origin: 433.34px 398.615px;" id="el5dvfrtbjd9c" class="animable"></rect><rect x="322.53" y="401.21" width="8.69" height="0.25" style="fill: rgb(235, 235, 235); transform-origin: 326.875px 401.335px;" id="el1v0j0nvq044" class="animable"></rect><rect x="396.59" y="389.21" width="19.19" height="0.25" style="fill: rgb(235, 235, 235); transform-origin: 406.185px 389.335px;" id="elc4xszfa8d3d" class="animable"></rect><rect x="52.46" y="390.89" width="43.19" height="0.25" style="fill: rgb(235, 235, 235); transform-origin: 74.055px 391.015px;" id="elpq2t9deichm" class="animable"></rect><rect x="104.56" y="390.89" width="6.33" height="0.25" style="fill: rgb(235, 235, 235); transform-origin: 107.725px 391.015px;" id="els50n6sq4bv" class="animable"></rect><rect x="131.47" y="395.11" width="93.68" height="0.25" style="fill: rgb(235, 235, 235); transform-origin: 178.31px 395.235px;" id="elvj30iajq95" class="animable"></rect><path d="M237,337.8H43.91a5.71,5.71,0,0,1-5.7-5.71V60.66A5.71,5.71,0,0,1,43.91,55H237a5.71,5.71,0,0,1,5.71,5.71V332.09A5.71,5.71,0,0,1,237,337.8ZM43.91,55.2a5.46,5.46,0,0,0-5.45,5.46V332.09a5.46,5.46,0,0,0,5.45,5.46H237a5.47,5.47,0,0,0,5.46-5.46V60.66A5.47,5.47,0,0,0,237,55.2Z" style="fill: rgb(235, 235, 235); transform-origin: 140.46px 196.4px;" id="elg3vlp0e0z3" class="animable"></path><path d="M453.31,337.8H260.21a5.72,5.72,0,0,1-5.71-5.71V60.66A5.72,5.72,0,0,1,260.21,55h193.1A5.71,5.71,0,0,1,459,60.66V332.09A5.71,5.71,0,0,1,453.31,337.8ZM260.21,55.2a5.47,5.47,0,0,0-5.46,5.46V332.09a5.47,5.47,0,0,0,5.46,5.46h193.1a5.47,5.47,0,0,0,5.46-5.46V60.66a5.47,5.47,0,0,0-5.46-5.46Z" style="fill: rgb(235, 235, 235); transform-origin: 356.75px 196.4px;" id="elxk5m3c91cxa" class="animable"></path><rect x="198.67" y="89" width="106.83" height="141.02" style="fill: rgb(245, 245, 245); transform-origin: 252.085px 159.51px;" id="ely1z94uizk4" class="animable"></rect><polygon points="235 104 235 166 259.7 164.61 262.54 104 235 104" style="fill: rgb(235, 235, 235); transform-origin: 248.77px 135px;" id="elmtk0n2jhocf" class="animable"></polygon><polygon points="255 116 293 116 292.67 170.27 272.99 170.58 255 116" style="fill: rgb(224, 224, 224); transform-origin: 274px 143.29px;" id="eliewzrnsk9d" class="animable"></polygon><polygon points="218 108 228 108 224.5 156.42 212 159.51 218 108" style="fill: rgb(230, 230, 230); transform-origin: 220px 133.755px;" id="elyjc3dw7sn5d" class="animable"></polygon><rect x="60.33" y="66.4" width="106.5" height="129.59" style="fill: rgb(224, 224, 224); transform-origin: 113.58px 131.195px;" id="elxh6jyvfn0t" class="animable"></rect><polygon points="134.47 84.5 78.5 139.51 139.05 149.5 134.47 84.5" style="fill: rgb(235, 235, 235); transform-origin: 108.775px 117px;" id="el36ft37gx4sn" class="animable"></polygon><polygon points="110.89 131.45 112.07 173.7 153 159.42 153 127 110.89 131.45" style="fill: rgb(240, 240, 240); transform-origin: 131.945px 150.35px;" id="elgrp4ydv0m4" class="animable"></polygon><g id="elbad0mniipwb"><circle cx="91.07" cy="167.36" r="17.01" style="fill: rgb(230, 230, 230); transform-origin: 91.07px 167.36px; transform: rotate(-45deg);" class="animable"></circle></g><circle cx="136.75" cy="104.75" r="8.25" style="fill: rgb(245, 245, 245); transform-origin: 136.75px 104.75px;" id="elmxqhaypdo1f" class="animable"></circle><polygon points="87.06 82 110.89 96.5 90.86 113 87.06 82" style="fill: rgb(245, 245, 245); transform-origin: 98.975px 97.5px;" id="el9vlzqxroai" class="animable"></polygon><g id="ele5paqxmnjbd"><rect x="325.33" y="72.4" width="106.5" height="129.59" style="fill: rgb(230, 230, 230); transform-origin: 378.58px 137.195px; transform: rotate(180deg);" class="animable"></rect></g><polygon points="349.7 169.9 405.67 114.89 345.12 104.9 349.7 169.9" style="fill: rgb(224, 224, 224); transform-origin: 375.395px 137.4px;" id="el1p4ssoh6gwg" class="animable"></polygon><polygon points="404.32 156.85 407.09 114.67 364.95 125.02 361.89 157.3 404.32 156.85" style="fill: rgb(240, 240, 240); transform-origin: 384.49px 135.985px;" id="elxx0nptc99km" class="animable"></polygon><circle cx="349.19" cy="97.5" r="17.01" style="fill: rgb(250, 250, 250); transform-origin: 349.19px 97.5px;" id="ellwhynglt1j9" class="animable"></circle><circle cx="407.06" cy="171.9" r="8.25" style="fill: rgb(224, 224, 224); transform-origin: 407.06px 171.9px;" id="eldo3u4vfgf0t" class="animable"></circle><polygon points="405.11 186.4 381.28 171.9 401.31 155.4 405.11 186.4" style="fill: rgb(245, 245, 245); transform-origin: 393.195px 170.9px;" id="el8fki34pfen8" class="animable"></polygon><rect x="372.28" y="88.89" width="4.68" height="103.48" style="fill: rgb(224, 224, 224); transform-origin: 374.62px 140.63px;" id="eltxjwsu1wb4" class="animable"></rect><rect x="415.78" y="88.89" width="6.06" height="98.9" style="fill: rgb(235, 235, 235); transform-origin: 418.81px 138.34px;" id="elm32hgpjebw" class="animable"></rect><rect x="336.02" y="157.3" width="30.96" height="30.96" style="fill: rgb(235, 235, 235); transform-origin: 351.5px 172.78px;" id="elxs3hqyf1iq8" class="animable"></rect></g><g id="freepik--Shadow--inject-3" class="animable" style="transform-origin: 250px 416.24px;"><ellipse id="freepik--path--inject-3" cx="250" cy="416.24" rx="193.89" ry="11.32" style="fill: rgb(245, 245, 245); transform-origin: 250px 416.24px;" class="animable"></ellipse></g><g id="freepik--Canvas--inject-3" class="animable" style="transform-origin: 234.43px 278.035px;"><polygon points="258.02 413 251.53 413 232.33 322.65 219.6 262.78 218.91 327.74 218 413 211 413 211 264.43 195.96 336.44 179.97 413 173.48 413 188.3 339.35 211.5 224 220 224 239.31 320 258.02 413" style="fill: rgb(46, 53, 58); transform-origin: 215.75px 318.5px;" id="ele6o79sdl7yu" class="animable"></polygon><g id="el1stvhdbetz4"><polygon points="258.02 413 251.53 413 232.33 322.65 219.6 262.78 218.91 327.74 218 413 211 413 211 264.43 195.96 336.44 179.97 413 173.48 413 188.3 339.35 211.5 224 220 224 239.31 320 258.02 413" style="fill: rgb(255, 255, 255); opacity: 0.2; isolation: isolate; transform-origin: 215.75px 318.5px;" class="animable"></polygon></g><g id="elj51t6giiibe"><polygon points="239.31 320 232.33 322.65 219.6 262.78 218.91 327.74 211 330.74 211 264.43 195.96 336.44 188.3 339.35 211.5 224 220 224 239.31 320" style="opacity: 0.2; isolation: isolate; transform-origin: 213.805px 281.675px;" class="animable"></polygon></g><polygon points="301.02 301.49 187.98 301.49 166.84 143.07 279.88 143.07 301.02 301.49" style="fill: rgb(46, 53, 58); transform-origin: 233.93px 222.28px;" id="ellejgjkg13li" class="animable"></polygon><g id="el67x4k2fbtle"><polygon points="301.02 301.49 187.98 301.49 166.84 143.07 279.88 143.07 301.02 301.49" style="fill: rgb(255, 255, 255); opacity: 0.4; isolation: isolate; transform-origin: 233.93px 222.28px;" class="animable"></polygon></g><polygon points="302.02 296.48 195 296.48 174.99 146.51 282.01 146.51 302.02 296.48" style="fill: rgb(64, 123, 255); transform-origin: 238.505px 221.495px;" id="elfojcddssvfr" class="animable"></polygon><g id="el0ko7vgm52dx"><polygon points="302.02 296.48 195 296.48 174.99 146.51 282.01 146.51 302.02 296.48" style="fill: rgb(255, 255, 255); opacity: 0.8; isolation: isolate; transform-origin: 238.505px 221.495px;" class="animable"></polygon></g><polygon points="264.25 228.33 209.81 292 290 292 264.25 228.33" style="fill: rgb(64, 123, 255); transform-origin: 249.905px 260.165px;" id="elxj560qoevl" class="animable"></polygon><g id="elyy0avpfhv1"><polyline points="245.71 250.01 261.67 270.65 257.33 280 246 270.43 245.71 248.6" style="fill: rgb(255, 255, 255); opacity: 0.2; isolation: isolate; transform-origin: 253.69px 264.3px;" class="animable"></polyline></g><g id="elsxy3m5uqpv"><polygon points="266.7 234.39 257.33 292 237.03 260.17 245.71 229.47 266.7 234.39" style="fill: rgb(255, 255, 255); opacity: 0.1; isolation: isolate; transform-origin: 251.865px 260.735px;" class="animable"></polygon></g><path d="M252.22,248.14c-11.49,4.19-26.18.6-35.92-9.27C197.67,220,191,172.33,222,165c20.46-4.84,37.7,7.32,44.51,32.46a92.35,92.35,0,0,1,2.93,18.66C270.5,234,262.7,244.33,252.22,248.14Z" style="fill: rgb(64, 123, 255); transform-origin: 235.037px 206.909px;" id="elpao9v2xiwqk" class="animable"></path><polygon points="197.67 228.47 215.33 198.37 224.93 231.88 197.67 228.47" style="fill: rgb(64, 123, 255); transform-origin: 211.3px 215.125px;" id="elmzx4yuoyp7c" class="animable"></polygon><path d="M228,200.37s6.67-12.79,21,2.09C249,202.46,236.33,215.4,228,200.37Z" style="fill: rgb(64, 123, 255); transform-origin: 238.5px 201.448px;" id="el7kuso471zc5" class="animable"></path><polygon points="246 186 217 186 218.67 192.29 246 186" style="fill: rgb(64, 123, 255); transform-origin: 231.5px 189.145px;" id="eldxogie01m7u" class="animable"></polygon><polygon points="207 189.15 215.33 198.37 204.48 219.07 196 192.29 207 189.15" style="fill: rgb(64, 123, 255); transform-origin: 205.665px 204.11px;" id="eluj55cztk8n" class="animable"></polygon><g id="elnkt5r3pjik"><path d="M266,235.94c-9.39,18.42-35.08,17.71-49.67,2.93C197.67,220,191,172.33,222,165c21.53-5.1,39.49,8.64,45.5,36.51,0,0-17.17,18.25-15.5,31.37L253.67,246A26.47,26.47,0,0,0,266,235.94Z" style="fill: rgb(255, 255, 255); opacity: 0.2; isolation: isolate; transform-origin: 234.02px 206.911px;" class="animable"></path></g><g id="el7sf8rdorkdc"><polygon points="197.67 228.47 215.33 198.37 224.93 231.88 197.67 228.47" style="fill: rgb(255, 255, 255); opacity: 0.2; isolation: isolate; transform-origin: 211.3px 215.125px;" class="animable"></polygon></g><g id="elwvl4rzds17r"><polygon points="246 186 217 186 218.67 192.29 246 186" style="fill: rgb(255, 255, 255); opacity: 0.2; isolation: isolate; transform-origin: 231.5px 189.145px;" class="animable"></polygon></g><polygon points="207 189.15 215.33 198.37 204.48 219.07 196 192.29 207 189.15" style="fill: rgb(64, 123, 255); transform-origin: 205.665px 204.11px;" id="elk2w3j82oykd" class="animable"></polygon><path d="M217,246l7.93-10.13,6.57,1.9L237,231l15,1.84S252.67,254.67,217,246Z" style="fill: rgb(64, 123, 255); transform-origin: 234.5px 239.518px;" id="elqvlscexj1ti" class="animable"></path><g id="eld3mshfukz7t"><path d="M217,246l35-13.12S247.24,252,217,246Z" style="fill: rgb(255, 255, 255); opacity: 0.2; isolation: isolate; transform-origin: 234.5px 240.023px;" class="animable"></path></g><polygon points="240.33 192.29 231.5 202.46 240.33 210.34 246 202.46 240.33 192.29" style="fill: rgb(64, 123, 255); transform-origin: 238.75px 201.315px;" id="elry3ta5tzfo" class="animable"></polygon><g id="elf3b5k55rpmb"><path d="M228,200.37s6.67-12.79,21,2.09C249,202.46,236.33,215.4,228,200.37Z" style="fill: rgb(255, 255, 255); opacity: 0.2; isolation: isolate; transform-origin: 238.5px 201.448px;" class="animable"></path></g><path d="M207,174.61s-9-10.28-9.33-17.28,45.24-5.66,59.66,0c0,0-4.66,11.88,0,22.94C257.33,180.27,233,166.56,207,174.61Z" style="fill: rgb(64, 123, 255); transform-origin: 227.499px 166.42px;" id="ele5m9a3u74k7" class="animable"></path><path d="M259.47,207.64s16.2-10.91,19.2-7.27,5.66,20.85,2.33,21.91-19.67-4.5-19.67-4.5Z" style="fill: rgb(64, 123, 255); transform-origin: 271.006px 211.02px;" id="el2qiy1h2jjs6" class="animable"></path><g id="eligul0qkxjzd"><polygon points="275.5 213.78 273.44 225.47 282.54 227.04 287 219.54 275.5 213.78" style="fill: rgb(255, 255, 255); opacity: 0.2; isolation: isolate; transform-origin: 280.22px 220.41px;" class="animable"></polygon></g><g id="ela57lsn476fd"><path d="M252.22,248.14l-.21-.79c-7.5-29.52,6.87-44.34,14.5-49.89a92.35,92.35,0,0,1,2.93,18.66C270.5,234,262.7,244.33,252.22,248.14Z" style="fill: rgb(255, 255, 255); opacity: 0.1; isolation: isolate; transform-origin: 259.721px 222.8px;" class="animable"></path></g></g><g id="freepik--Statue--inject-3" class="animable" style="transform-origin: 119.33px 307.135px;"><path d="M133.8,357.33c-3.24-5.37-5.66-9.77-5.08-12.25,1.72-7.43,8.28-9.58,10.17-20.92C140.75,313,126,299.41,125.57,299h0s21.44-40,9.94-56.5c-.35-.5-.69-1-1-1.46-10.75-15.26-15.14-18.62-15.14-18.62l6.23-12.56-3-2.77-5.95-5.57-8.15,10.25,3,6.94,1.53,3.58S95.5,240,95.06,253.41s10.27,34.67,10.27,34.67-10.6,12.16-15.66,21.82c-2.59,5-3.72,9.29-1.17,10.93,6,3.86,12.66,15.13,10.21,30.09a46.57,46.57,0,0,1-3.65,11.74c-5.43,11.88-4.62,20.74-2.94,26.11a19.12,19.12,0,0,0,2.94,6.06L146,393.49C150,382.51,140.26,368,133.8,357.33Zm-17.15-129.4s13.52,12.72,14.68,22.15a19.44,19.44,0,0,1-.12,5C130,264.38,124,275.93,124,275.93l0-5.85,0-9.4-7.4-12.08-7.15,14,2,13.33s-5.83-7.07-6.17-20S116.65,227.93,116.65,227.93Z" style="fill: rgb(64, 123, 255); transform-origin: 116.999px 298.175px;" id="eluby5ud3mxck" class="animable"></path><g id="eltid2y4gy8tr"><path d="M133.8,357.33c-3.24-5.37-5.66-9.77-5.08-12.25,1.72-7.43,8.28-9.58,10.17-20.92C140.75,313,126,299.41,125.57,299h0s21.44-40,9.94-56.5c-.35-.5-.69-1-1-1.46-10.75-15.26-15.14-18.62-15.14-18.62l6.23-12.56-3-2.77-5.95-5.57-8.15,10.25,3,6.94,1.53,3.58S95.5,240,95.06,253.41s10.27,34.67,10.27,34.67-10.6,12.16-15.66,21.82c-2.59,5-3.72,9.29-1.17,10.93,6,3.86,12.66,15.13,10.21,30.09a46.57,46.57,0,0,1-3.65,11.74c-5.43,11.88-4.62,20.74-2.94,26.11a19.12,19.12,0,0,0,2.94,6.06L146,393.49C150,382.51,140.26,368,133.8,357.33Zm-17.15-129.4s13.52,12.72,14.68,22.15a19.44,19.44,0,0,1-.12,5C130,264.38,124,275.93,124,275.93l0-5.85,0-9.4-7.4-12.08-7.15,14,2,13.33s-5.83-7.07-6.17-20S116.65,227.93,116.65,227.93Z" style="fill: rgb(255, 255, 255); opacity: 0.2; isolation: isolate; transform-origin: 116.999px 298.175px;" class="animable"></path></g><g id="elr09bxmblrt8"><path d="M131.21,255.1a19.44,19.44,0,0,0,.12-5c-1.16-9.43-14.68-22.15-14.68-22.15S105,243,105.33,255.93s6.17,20,6.17,20l-2-13.33,7.15-14,7.4,12.08,0,9.4c-13.3,22.45-34.33,39.83-34.33,39.83h0c5.06-9.66,15.66-21.82,15.66-21.82s-10.72-21.26-10.27-34.67S113,222.28,113,222.28l-1.53-3.58c4.26-4.57,8.13-8.57,11.13-11.62l3,2.77-6.23,12.56s4.39,3.36,15.14,18.62A56.29,56.29,0,0,1,131.21,255.1Z" style="opacity: 0.2; isolation: isolate; transform-origin: 112.115px 258.495px;" class="animable"></path></g><g id="elhsriwsb3rbc"><path d="M128.72,345.08c-.58,2.48,1.84,6.88,5.08,12.25a79.43,79.43,0,0,1-5.08,6.75c-13.81,16.59-27,23.36-36.6,24.69-1.68-5.37-2.49-14.23,2.94-26.11a46.57,46.57,0,0,0,3.65-11.74C112.3,328.44,125.56,299,125.56,299h0c.45.41,15.18,14,13.32,25.16C137,335.5,130.44,337.65,128.72,345.08Z" style="opacity: 0.2; isolation: isolate; transform-origin: 114.952px 343.885px;" class="animable"></path></g><rect x="81.33" y="390.36" width="76" height="22.39" style="fill: rgb(46, 53, 58); transform-origin: 119.33px 401.555px;" id="el2vrumekpykf" class="animable"></rect><g id="ely8oudm16dqe"><rect x="105.33" y="390.36" width="52" height="22.39" style="fill: rgb(255, 255, 255); opacity: 0.2; isolation: isolate; transform-origin: 131.33px 401.555px;" class="animable"></rect></g></g><g id="freepik--Character--inject-3" class="animable animator-active" style="transform-origin: 344.769px 293.804px;"><path d="M409.67,246s6.81,22-1.68,23.93S402.33,246,402.33,246Z" style="fill: rgb(228, 137, 123); transform-origin: 407.066px 258.016px;" id="elrvzhzbe21j8" class="animable"></path><g id="elk6oer29xjai"><path d="M409.67,246s6.81,22-1.68,23.93S402.33,246,402.33,246Z" style="opacity: 0.1; isolation: isolate; transform-origin: 407.066px 258.016px;" class="animable"></path></g><path d="M382.64,232.07c.7-8.8,8.71-16.55,17.14-18.28,9.11-1.87,17.66,5,20.83,13.17s.49,24.45-11.67,21.23c-4.66-1.23-8.23-4.5-13-5.71-4.13-1.06-8.89-1.58-11.74-5.15A7.28,7.28,0,0,1,382.64,232.07Z" style="fill: rgb(64, 123, 255); transform-origin: 402.22px 231.043px;" id="el9dgtp05hn1r" class="animable"></path><g id="elilecxpmvy0b"><path d="M420.61,227c-3.17-8.19-11.72-15-20.83-13.17-8.43,1.73-16.44,9.48-17.14,18.28a7.28,7.28,0,0,0,1.56,5.26c2.85,3.57,7.61,4.09,11.74,5.15,4.77,1.21,8.34,4.48,13,5.71C421.1,251.41,423.79,235.16,420.61,227Zm-19.79-6.47c-.54-2,4.26-4.08,6.27-1.56S402.62,227,400.82,220.49Zm7.72,4.5c.47-2,5.7-1.53,6.25,1.64S407,231.57,408.54,225Zm2.49,8.48c1.11-1.7,5.88.49,5.32,3.66S407.34,239.14,411,233.47Z" style="fill: rgb(255, 255, 255); opacity: 0.6; isolation: isolate; transform-origin: 402.222px 231.083px;" class="animable"></path></g><g id="elh8aw26prpi7"><path d="M408.54,225c.47-2,5.7-1.53,6.25,1.64S407,231.57,408.54,225Z" style="fill: rgb(255, 255, 255); opacity: 0.2; isolation: isolate; transform-origin: 411.583px 226.636px;" class="animable"></path></g><g id="ela9vllr9hzl9"><path d="M411,233.47c1.11-1.7,5.88.49,5.32,3.66S407.34,239.14,411,233.47Z" style="fill: rgb(255, 255, 255); opacity: 0.4; isolation: isolate; transform-origin: 413.223px 235.87px;" class="animable"></path></g><path d="M395.45,224.26C399,227,410.37,258,411.19,263.5s-2.52,10.5-8.86,3.5-16-26.33-16-26.33Z" style="fill: rgb(228, 137, 123); transform-origin: 398.821px 247.347px;" id="el9lqva3ylq2" class="animable"></path><path d="M285,379l4.75,2.25s31-75,36-75.21,55.91,23.19,68.67,10.21S388.75,272,388.75,272s-30.69-4.38-33,2.55a48.61,48.61,0,0,0-1.3,6.22c-.35,2.12-.59,3.9-.59,3.9h0c-.95-.24-27.76-8.19-39.9,0C301.61,293,285,379,285,379Z" style="fill: rgb(228, 137, 123); transform-origin: 341.96px 325.942px;" id="el7d5u1fa219b" class="animable"></path><path d="M372.4,319.38s-33.79-1.88-45.27,4.54c0,0,5.81,49.25,8.44,79.38l-5.63.64s-24-80.52-23.75-90.77,19-11.25,19-11.25S348.13,315.17,372.4,319.38Z" style="fill: rgb(228, 137, 123); transform-origin: 339.294px 352.93px;" id="elo11vn4kh5e" class="animable"></path><g id="elbxch59hx83"><g style="opacity: 0.1; isolation: isolate; transform-origin: 339.294px 352.93px;" class="animable"><path d="M372.4,319.38s-33.79-1.88-45.27,4.54c0,0,5.81,49.25,8.44,79.38l-5.63.64s-24-80.52-23.75-90.77,19-11.25,19-11.25S348.13,315.17,372.4,319.38Z" id="elm3t34rsr04r" class="animable" style="transform-origin: 339.294px 352.93px;"></path></g></g><polygon points="337.8 308.23 347.57 322 372.4 319.38 337.8 308.23" style="fill: rgb(64, 123, 255); transform-origin: 355.1px 315.115px;" id="elduk0ac50ulr" class="animable"></polygon><g id="elh2vcog4ww4u"><polygon points="337.8 308.23 347.57 322 372.4 319.38 337.8 308.23" style="fill: rgb(255, 255, 255); opacity: 0.4; isolation: isolate; transform-origin: 355.1px 315.115px;" class="animable"></polygon></g><path d="M337.1,401.37c0-.75-9.18-.05-9.18-.05s-5.57,5.8-11,7.15-2.36,4.6,3.76,4.53l15.14-.18C340.14,412.76,337.37,409.09,337.1,401.37Z" style="fill: rgb(46, 53, 58); transform-origin: 326.164px 407.012px;" id="elydufkwsdmq" class="animable"></path><path d="M323.1,403.72a1.21,1.21,0,0,1-.78-.21.88.88,0,0,1-.24-1,1,1,0,0,1,.48-.62,3.7,3.7,0,0,1,2.06-.25c-.75-.39-1.41-.86-1.45-1.35,0-.31.18-.57.6-.77a1.4,1.4,0,0,1,1.18-.05c1.25.5,2,2.46,2.08,2.57s0-.06,0-.06h0v.16s0-.1,0-.08h0s0-.08,0-.08h0s0,.27-.07.29C326.42,402.52,324.37,403.72,323.1,403.72Zm.85-1.61a2.44,2.44,0,0,0-1.14.21.52.52,0,0,0-.26.33c-.09.36,0,.45.07.48.44.35,2.11-.17,3.45-.76A11.08,11.08,0,0,0,324,402.11Zm.46-2.24a1,1,0,0,0-.43.1c-.12.06-.33.18-.32.31,0,.41,1.34,1.11,2.71,1.61a4,4,0,0,0-1.6-1.95A.92.92,0,0,0,324.41,399.87Z" style="fill: rgb(64, 123, 255); transform-origin: 324.54px 401.543px;" id="elfvftablk8co" class="animable"></path><path d="M292.28,378.55c.16-.73-8.89-2.3-8.89-2.3s-6.82,4.25-12.44,4.22-3.42,3.88,2.53,5.32l14.71,3.54C292.42,390.35,290.65,386.11,292.28,378.55Z" style="fill: rgb(46, 53, 58); transform-origin: 279.991px 382.865px;" id="elu9l9r1b6ug" class="animable"></path><path d="M279.23,377.5a2.36,2.36,0,0,1-1.81-.51.86.86,0,0,1,0-1,1,1,0,0,1,.62-.49,3.79,3.79,0,0,1,2.05.27c-.63-.56-1.16-1.19-1.07-1.66.06-.31.31-.51.77-.61a1.08,1.08,0,0,1,1,.25c1.09.79,1.19,3.05,1.19,3.15h0V377h.31v0h0V377H282v0h0v0h0v0s.13,0,.11,0,.05,0,0,0h0s0,.09-.08.1A14.43,14.43,0,0,1,279.23,377.5Zm-.68-1.58a1.36,1.36,0,0,0-.36.05.53.53,0,0,0-.33.25c-.17.33-.08.44-.05.48.34.45,2.09.35,3.53.11A7.88,7.88,0,0,0,278.55,375.92Zm1.58-2-.23,0c-.13,0-.36.1-.38.23-.08.4,1,1.4,2.23,2.22a4,4,0,0,0-1.07-2.28A.88.88,0,0,0,280.13,374Z" style="fill: rgb(64, 123, 255); transform-origin: 279.775px 375.494px;" id="elvva7vdgstff" class="animable"></path><path d="M331.39,280s-2.39,21,2.11,29.29c0,0,20.34,10.75,41.17,11.75s36.34-7.72,14.08-49c0,0-6.45-5-17.48-5s-15.52,7.56-15.52,7.56l-3.87,7.69Z" style="fill: rgb(64, 123, 255); transform-origin: 365.195px 294.077px;" id="el0e236x6ucr2" class="animable"></path><g id="elzjst54ypm3"><path d="M331.39,280s-2.39,21,2.11,29.29c0,0,20.34,10.75,41.17,11.75s36.34-7.72,14.08-49c0,0-6.45-5-17.48-5s-15.52,7.56-15.52,7.56l-3.87,7.69Z" style="fill: rgb(255, 255, 255); opacity: 0.6; isolation: isolate; transform-origin: 365.195px 294.077px;" class="animable"></path></g><path d="M356.66,185.93s-4.16-.05-5.16-5.37,3.9-6.43,5.16-5.79" style="fill: none; stroke: rgb(46, 53, 58); stroke-linecap: round; stroke-linejoin: round; stroke-width: 0.5px; transform-origin: 354.013px 180.269px;" id="elugnng0g5tk" class="animable"></path><path d="M366.9,210.27a12.19,12.19,0,0,1-3.39.73h0c-2.36,0-4.22-.31-5.68-1.4-3.3-2.47-4.5-7.93-4.59-14.67-.14-8.8,2.21-13.58,10.7-14.31C378,179.41,381.05,205.85,366.9,210.27Z" style="fill: rgb(228, 137, 123); transform-origin: 364.676px 195.79px;" id="elt4hy7cfblzr" class="animable"></path><g id="elmpze7m395r"><path d="M370.53,206.19a17,17,0,0,1-7,4.81h0c-2.36,0-4.22-.3-5.68-1.39C362.1,206.13,370.53,206.19,370.53,206.19Z" style="opacity: 0.2; isolation: isolate; transform-origin: 364.19px 208.595px;" class="animable"></path></g><path d="M358.21,185.21S353.88,194,361.26,199c0,0,5.06,8.4,13.21,7.27s13-13.86,7.6-24.93c-5.1-10.5-22.49-4.68-22.49-4.68-7.42-3.37-10.43,6.27-4.92,9.28A5.76,5.76,0,0,1,358.21,185.21Z" style="fill: rgb(46, 53, 58); transform-origin: 368.09px 190.713px;" id="eleo8qr3t923u" class="animable"></path><path d="M365.42,198.67c-2.44-2.5-9.76-13.3-5.84-22,0,0,6.92-2.82,11.84-1.55,0,0-6.14,20.57,7.11,29.15A18.68,18.68,0,0,1,365.42,198.67Z" style="fill: rgb(64, 123, 255); transform-origin: 368.489px 189.531px;" id="eliozmsdzt6ss" class="animable"></path><path d="M377.42,203.83s5-4.16,8.91,2c0,0-4.16,1.57-7.41-.54,0,0,1.16,1.81.33,5.05C379.25,210.34,375.75,209.08,377.42,203.83Z" style="fill: rgb(64, 123, 255); transform-origin: 381.649px 206.398px;" id="elq50hrtzhku" class="animable"></path><path d="M361.22,197.53s.12,5.14,3.46,8" style="fill: none; stroke: rgb(46, 53, 58); stroke-linecap: round; stroke-linejoin: round; stroke-width: 0.5px; transform-origin: 362.95px 201.53px;" id="elih0b7l37gh" class="animable"></path><path d="M358.29,196.4c-.1-1.54,1.06-4.24,3.64-4.1s4.54,6.11-1.88,8C359.13,200.6,358.49,199.61,358.29,196.4Z" style="fill: rgb(228, 137, 123); transform-origin: 361.325px 196.323px;" id="elragwapqxfy" class="animable"></path><path d="M377,183.08s1.2-6.75,8.36-7,6,6.34,8,7.75,3.25.34,4.75,2.42-.83,4.5-.75,6.58,2.67,2.5,2.67,5.34-3,3.08-4.08,6.5.91,3.68.91,5.67-.66,3.24-3.16,3.16c0,0,2.06-1.17.7-2.5s-4.9-2.58-5.89-5.25,3.44-5.58-.65-8.42-6.25-.91-7.75-6.5S377,183.08,377,183.08Z" style="fill: rgb(46, 53, 58); transform-origin: 388.515px 194.788px;" id="elys7fbspr31" class="animable"></path><path d="M366.17,224.38c6.19.76,9.76-6.08,9.76-6.08-5.84-4-2.35-12.11-2.35-12.11-5.66-2.35-9.94,2.4-9.94,2.4a28.74,28.74,0,0,1,1,4c1,5.87-1.66,6.33-1.66,6.33A4,4,0,0,0,366.17,224.38Z" style="fill: rgb(228, 137, 123); transform-origin: 369.31px 214.988px;" id="elmu0thpowc08" class="animable"></path><path d="M388.75,272s.7-33,6.7-47.75a80.86,80.86,0,0,0-16.92-7.43c-11.08-3.35-24.8-5-29-3.33,0,0-2.86,38,6.2,61.06C355.75,274.56,367.82,274.26,388.75,272Z" style="fill: rgb(64, 123, 255); transform-origin: 372.276px 243.691px;" id="el9rrb6s8z5y" class="animable"></path><g id="elr12gsiy78qa"><path d="M388.75,272s.7-33,6.7-47.75a80.86,80.86,0,0,0-16.92-7.43c-11.08-3.35-24.8-5-29-3.33,0,0-2.86,38,6.2,61.06C355.75,274.56,367.82,274.26,388.75,272Z" style="opacity: 0.2; isolation: isolate; transform-origin: 372.276px 243.691px;" class="animable"></path></g><path d="M302,190.11c-1.3-1.65-28.85,9-28.85,9l.29.65S303,191.38,302,190.11Z" style="fill: rgb(46, 53, 58); transform-origin: 287.587px 194.848px;" id="elhl1jqb8pbfk" class="animable"></path><path d="M273.15,199.16a4.79,4.79,0,0,0-2.46,0,2.11,2.11,0,0,1-2.44-1.35s1.13,5.38,5.19,2Z" style="fill: rgb(64, 123, 255); transform-origin: 270.845px 199.368px;" id="elcpjusooxl8w" class="animable"></path><path d="M352.88,213.5c-6.46-3.34-29.44,13.17-34.38,12.67-7.53-.77-19.39-25.8-19.39-25.8L294,202.46s9.17,31.71,20.67,34.87c9.1,2.51,34.52-6.49,34.51-7.33C349.18,230,360.49,217.44,352.88,213.5Z" style="fill: rgb(228, 137, 123); transform-origin: 324.756px 219.07px;" id="el2hdpw682wwd" class="animable"></path><path d="M299.67,201.51s-2.84-8.27-4.17-10.81-8.33,3.79-8.5,5.63,7.17,9.5,8.67,9.17S299.67,201.51,299.67,201.51Z" style="fill: rgb(228, 137, 123); transform-origin: 293.334px 197.809px;" id="elfnqz9z7r2c" class="animable"></path><polygon points="365.4 327 365.76 342.57 367.4 413 372.81 413 374.44 342.57 374.8 327 365.4 327" style="fill: rgb(38, 50, 56); transform-origin: 370.1px 370px;" id="el20hruqz9gjf" class="animable"></polygon><g id="eltxwvrbadwre"><polygon points="365.4 327 365.76 342.57 367.4 413 372.81 413 374.44 342.57 374.8 327 365.4 327" style="fill: rgb(255, 255, 255); opacity: 0.1; isolation: isolate; transform-origin: 370.1px 370px;" class="animable"></polygon></g><g id="elm7kxtrobgmm"><polygon points="365.4 327 365.76 343 374.44 343 374.8 327 365.4 327" style="opacity: 0.2; isolation: isolate; transform-origin: 370.1px 335px;" class="animable"></polygon></g><polygon points="336.02 412.75 341.02 328.1 349.19 328.1 342.19 412.75 336.02 412.75" style="fill: rgb(38, 50, 56); transform-origin: 342.605px 370.425px;" id="el8600u7anm0i" class="animable"></polygon><g id="ellijl0sunqio"><polygon points="342.21 412.75 336.03 412.75 340.57 335.7 341.02 328 349.19 328 348.56 335.7 342.21 412.75" style="fill: rgb(255, 255, 255); opacity: 0.2; isolation: isolate; transform-origin: 342.61px 370.375px;" class="animable"></polygon></g><g id="elgvwhk4w3btv"><polygon points="349.19 328 348.56 336 340.57 336 341.02 328 349.19 328" style="opacity: 0.2; isolation: isolate; transform-origin: 344.88px 332px;" class="animable"></polygon></g><polygon points="398.02 412.75 391.02 328.1 399.19 328.1 404.19 412.75 398.02 412.75" style="fill: rgb(38, 50, 56); transform-origin: 397.605px 370.425px;" id="elf4p2wo74x64" class="animable"></polygon><g id="eli58w6mrva2o"><polygon points="398 412.75 391.65 335.7 391.02 328 399.19 328 399.64 335.7 404.18 412.75 398 412.75" style="fill: rgb(255, 255, 255); opacity: 0.2; isolation: isolate; transform-origin: 397.6px 370.375px;" class="animable"></polygon></g><g id="el0uy00mahkn4"><polygon points="391.02 328 391.65 336 399.64 336 399.19 328 391.02 328" style="opacity: 0.2; isolation: isolate; transform-origin: 395.33px 332px;" class="animable"></polygon></g><g id="el0bkg0ha67kp"><path d="M336.65,319.33h66.92a0,0,0,0,1,0,0V326a5,5,0,0,1-5,5H341.65a5,5,0,0,1-5-5v-6.69A0,0,0,0,1,336.65,319.33Z" style="fill: rgb(64, 123, 255); transform-origin: 370.11px 325.155px; transform: rotate(180deg);" class="animable"></path></g><g id="elbj68xs7qvqa"><rect x="333.44" y="325.18" width="73.33" height="5.84" rx="2.01" style="fill: rgb(38, 50, 56); transform-origin: 370.105px 328.1px; transform: rotate(180deg);" class="animable"></rect></g><g id="el8lt453qljg3"><rect x="333.44" y="325.18" width="73.33" height="5.84" rx="2.01" style="fill: rgb(255, 255, 255); opacity: 0.4; isolation: isolate; transform-origin: 370.105px 328.1px; transform: rotate(180deg);" class="animable"></rect></g><path d="M353.87,278.31s-1.91-1.66,1.23-5.49,30.8-7.27,40.35-2.79l-.12,7.22s14.28,31,16,62.25c0,0-7.31,3.25-14.81,0s-22.9,6.27-31.82,4.13c0,0,6.34-42.56-.51-57.38C364.17,286.25,360.23,277.86,353.87,278.31Z" style="fill: rgb(46, 53, 58); transform-origin: 382.312px 305.929px;" id="el8rd4uagsl1n" class="animable"></path><path d="M355.3,273.92s-8.92,1.08-8.67,10.21,8.62,16,6.5,22.37c0,0,5.37,1.61,8.12-.57,0,0,3.75-7.55-2-13.68s-9.79-12.66-3.15-15.08Z" style="fill: rgb(46, 53, 58); transform-origin: 354.538px 290.496px;" id="elwz1rbpah46" class="animable"></path></g><defs>     <filter id="active" height="200%">         <feMorphology in="SourceAlpha" result="DILATED" operator="dilate" radius="2"></feMorphology>                <feFlood flood-color="#32DFEC" flood-opacity="1" result="PINK"></feFlood>        <feComposite in="PINK" in2="DILATED" operator="in" result="OUTLINE"></feComposite>        <feMerge>            <feMergeNode in="OUTLINE"></feMergeNode>            <feMergeNode in="SourceGraphic"></feMergeNode>        </feMerge>    </filter>    <filter id="hover" height="200%">        <feMorphology in="SourceAlpha" result="DILATED" operator="dilate" radius="2"></feMorphology>                <feFlood flood-color="#ff0000" flood-opacity="0.5" result="PINK"></feFlood>        <feComposite in="PINK" in2="DILATED" operator="in" result="OUTLINE"></feComposite>        <feMerge>            <feMergeNode in="OUTLINE"></feMergeNode>            <feMergeNode in="SourceGraphic"></feMergeNode>        </feMerge>            <feColorMatrix type="matrix" values="0   0   0   0   0                0   1   0   0   0                0   0   0   0   0                0   0   0   1   0 "></feColorMatrix>    </filter></defs></svg>